<svg xmlns="http://www.w3.org/2000/svg" xmlns:xlink="http://www.w3.org/1999/xlink" width="500" zoomAndPan="magnify" viewBox="0 0 375 374.999991" height="500" preserveAspectRatio="xMidYMid meet" version="1.0"><defs><g/><clipPath id="7e1dfe2866"><path d="M 112.902344 87.320312 L 262.097656 87.320312 L 262.097656 223.816406 L 112.902344 223.816406 Z M 112.902344 87.320312 " clip-rule="nonzero"/></clipPath><clipPath id="90483e8c9c"><path d="M 147.605469 145.339844 L 227.105469 145.339844 L 227.105469 224.839844 L 147.605469 224.839844 Z M 147.605469 145.339844 " clip-rule="nonzero"/></clipPath></defs><g clip-path="url(#7e1dfe2866)"><path fill="#ffde59" d="M 259.410156 155.285156 L 194.109375 90.039062 C 190.492188 86.417969 184.519531 86.417969 180.917969 90.039062 L 115.601562 155.285156 C 112 158.890625 112 164.871094 115.601562 168.480469 C 119.21875 172.101562 125.179688 172.101562 128.796875 168.480469 L 136.808594 160.46875 L 136.808594 212.664062 C 136.808594 218.789062 141.828125 223.816406 147.949219 223.816406 L 226.90625 223.816406 C 233.039062 223.816406 238.058594 218.789062 238.058594 212.664062 L 238.058594 160.628906 L 246.070312 168.640625 C 247.953125 170.523438 250.308594 171.320312 252.667969 171.320312 C 255.011719 171.320312 257.527344 170.363281 259.25 168.640625 C 263.027344 165.019531 263.027344 159.050781 259.410156 155.285156 " fill-opacity="1" fill-rule="nonzero"/></g><g clip-path="url(#90483e8c9c)"><path fill="#ffffff" d="M 209.324219 145.339844 C 205.683594 145.339844 204.074219 146.457031 202.320312 147.761719 C 199.488281 147.476562 196.265625 148.613281 194.625 151.609375 C 193.347656 153.949219 191.015625 158.210938 190.726562 161.28125 C 190.6875 161.476562 190.667969 161.675781 190.667969 161.875 C 190.667969 161.886719 190.667969 161.894531 190.667969 161.902344 C 190.667969 162.34375 190.75 162.765625 190.917969 163.171875 C 191.085938 163.578125 191.324219 163.933594 191.636719 164.246094 C 191.949219 164.554688 192.304688 164.796875 192.710938 164.964844 C 193.117188 165.132812 193.539062 165.214844 193.980469 165.214844 C 189.265625 180.796875 160.855469 178.527344 160.855469 208.277344 L 160.855469 217.773438 C 159.042969 217.292969 157.679688 216.441406 156.660156 215.316406 C 155.101562 213.589844 154.230469 211.109375 154.230469 208.277344 C 154.234375 207.832031 154.152344 207.398438 153.984375 206.984375 C 153.816406 206.570312 153.574219 206.203125 153.257812 205.886719 C 152.941406 205.570312 152.574219 205.328125 152.160156 205.160156 C 151.742188 204.992188 151.3125 204.914062 150.863281 204.921875 C 150.425781 204.925781 150.003906 205.015625 149.601562 205.191406 C 149.199219 205.367188 148.84375 205.609375 148.539062 205.925781 C 148.234375 206.238281 148 206.601562 147.839844 207.007812 C 147.675781 207.414062 147.597656 207.839844 147.605469 208.277344 C 147.605469 212.476562 148.90625 216.621094 151.746094 219.761719 C 154.582031 222.902344 158.945312 224.839844 164.167969 224.839844 L 170.792969 224.839844 L 170.792969 221.527344 C 170.792969 208.277344 177.414062 204.964844 181.105469 203.074219 C 178.871094 201.554688 177.417969 199.273438 177.417969 196.683594 C 177.417969 195.4375 177.769531 194.265625 178.359375 193.203125 C 177.933594 191.824219 177.414062 188.300781 177.417969 185.089844 C 181.511719 185.089844 184.566406 188.773438 184.566406 188.773438 C 185.457031 188.554688 186.378906 188.402344 187.355469 188.402344 C 188.328125 188.402344 189.25 188.554688 190.140625 188.773438 C 190.140625 188.773438 192.460938 185.089844 197.292969 185.089844 C 197.292969 188.300781 196.773438 191.824219 196.347656 193.203125 C 196.941406 194.265625 197.292969 195.4375 197.292969 196.683594 C 197.292969 199.460938 195.636719 201.902344 193.117188 203.40625 C 193.601562 204.867188 193.980469 209.839844 193.980469 211.589844 C 193.980469 214.71875 193.167969 217.941406 192.710938 219.898438 C 193.492188 220.773438 193.980469 221.917969 193.980469 223.183594 L 193.980469 224.839844 L 213.855469 224.839844 C 215.6875 224.839844 217.167969 223.355469 217.167969 221.527344 C 217.167969 219.699219 215.6875 218.214844 213.855469 218.214844 L 212.527344 218.214844 L 207.558594 193.363281 C 209.394531 191.09375 210.542969 188.242188 210.542969 185.089844 C 210.542969 168.453125 211.441406 165.214844 216.28125 165.214844 L 218.824219 165.214844 C 219.722656 165.214844 220.558594 164.984375 221.332031 164.527344 C 222.105469 164.070312 222.714844 163.453125 223.152344 162.667969 L 223.164062 162.660156 L 223.246094 162.496094 C 223.25 162.492188 223.253906 162.484375 223.253906 162.480469 L 226.664062 155.859375 C 226.777344 155.695312 226.867188 155.523438 226.9375 155.335938 C 227.007812 155.152344 227.058594 154.960938 227.082031 154.765625 C 227.105469 154.566406 227.109375 154.371094 227.085938 154.171875 C 227.0625 153.976562 227.019531 153.785156 226.949219 153.597656 C 226.882812 153.414062 226.792969 153.238281 226.683594 153.074219 C 226.574219 152.90625 226.445312 152.757812 226.300781 152.625 C 226.152344 152.488281 225.992188 152.375 225.820312 152.277344 C 225.648438 152.183594 225.464844 152.109375 225.273438 152.054688 L 225.214844 152.035156 C 225.210938 152.035156 225.207031 152.035156 225.203125 152.035156 L 217.167969 149.597656 C 217.167969 149.597656 215.542969 145.339844 209.324219 145.339844 Z M 182.386719 195.027344 C 182.164062 195.027344 181.953125 195.070312 181.75 195.152344 C 181.546875 195.238281 181.371094 195.359375 181.214844 195.511719 C 181.058594 195.667969 180.9375 195.847656 180.855469 196.050781 C 180.769531 196.253906 180.730469 196.464844 180.730469 196.683594 C 180.730469 196.902344 180.769531 197.113281 180.855469 197.316406 C 180.9375 197.519531 181.058594 197.699219 181.214844 197.855469 C 181.371094 198.011719 181.546875 198.128906 181.75 198.214844 C 181.953125 198.296875 182.164062 198.339844 182.386719 198.339844 C 182.605469 198.339844 182.816406 198.296875 183.019531 198.214844 C 183.222656 198.128906 183.402344 198.011719 183.554688 197.855469 C 183.710938 197.699219 183.832031 197.519531 183.914062 197.316406 C 184 197.113281 184.042969 196.902344 184.042969 196.683594 C 184.042969 196.464844 184 196.253906 183.914062 196.050781 C 183.832031 195.847656 183.710938 195.667969 183.554688 195.511719 C 183.402344 195.359375 183.222656 195.238281 183.019531 195.152344 C 182.816406 195.070312 182.605469 195.027344 182.386719 195.027344 Z M 192.324219 195.027344 C 192.101562 195.027344 191.890625 195.070312 191.6875 195.152344 C 191.484375 195.238281 191.308594 195.359375 191.152344 195.511719 C 190.996094 195.667969 190.875 195.847656 190.792969 196.050781 C 190.707031 196.253906 190.667969 196.464844 190.667969 196.683594 C 190.667969 196.902344 190.707031 197.113281 190.792969 197.316406 C 190.875 197.519531 190.996094 197.699219 191.152344 197.855469 C 191.308594 198.011719 191.484375 198.128906 191.6875 198.214844 C 191.890625 198.296875 192.101562 198.339844 192.324219 198.339844 C 192.542969 198.339844 192.753906 198.296875 192.957031 198.214844 C 193.160156 198.128906 193.339844 198.011719 193.492188 197.855469 C 193.648438 197.699219 193.769531 197.519531 193.851562 197.316406 C 193.9375 197.113281 193.980469 196.902344 193.980469 196.683594 C 193.980469 196.464844 193.9375 196.253906 193.851562 196.050781 C 193.769531 195.847656 193.648438 195.667969 193.492188 195.511719 C 193.339844 195.359375 193.160156 195.238281 192.957031 195.152344 C 192.753906 195.070312 192.542969 195.027344 192.324219 195.027344 Z M 192.324219 195.027344 " fill-opacity="1" fill-rule="nonzero"/></g><g fill="#000000" fill-opacity="1"><g transform="translate(46.573551, 266.289899)"><g><path d="M 9.921875 -7.9375 C 9.921875 -7.03125 9.929688 -6.050781 9.953125 -5 C 9.984375 -3.945312 10.085938 -1.421875 10.265625 2.578125 C 9.117188 2.578125 7.960938 2.53125 6.796875 2.4375 C 5.628906 2.351562 4.601562 2.238281 3.71875 2.09375 C 3.238281 -1.9375 2.882812 -5.816406 2.65625 -9.546875 C 2.425781 -13.285156 2.3125 -16.914062 2.3125 -20.4375 C 2.3125 -21.226562 2.332031 -22.066406 2.375 -22.953125 C 2.414062 -23.835938 2.484375 -24.847656 2.578125 -25.984375 C 3.898438 -26.648438 5.503906 -27.1875 7.390625 -27.59375 C 9.273438 -28 11.128906 -28.203125 12.953125 -28.203125 C 16.046875 -28.203125 18.429688 -27.546875 20.109375 -26.234375 C 21.796875 -24.929688 22.640625 -23.113281 22.640625 -20.78125 C 22.640625 -17.945312 21.503906 -15.375 19.234375 -13.0625 C 16.972656 -10.757812 13.867188 -9.050781 9.921875 -7.9375 Z M 14.8125 -19.421875 C 14.8125 -20.890625 14.523438 -22.003906 13.953125 -22.765625 C 13.390625 -23.523438 12.539062 -23.90625 11.40625 -23.90625 C 11.175781 -23.90625 11.003906 -23.90625 10.890625 -23.90625 C 10.773438 -23.90625 10.664062 -23.890625 10.5625 -23.859375 C 10.414062 -22.160156 10.289062 -20.398438 10.1875 -18.578125 C 10.082031 -16.753906 10.003906 -14.84375 9.953125 -12.84375 C 11.578125 -13.269531 12.789062 -14.03125 13.59375 -15.125 C 14.40625 -16.21875 14.8125 -17.648438 14.8125 -19.421875 Z M 14.8125 -19.421875 "/></g></g></g><g fill="#000000" fill-opacity="1"><g transform="translate(70.660628, 266.289899)"><g><path d="M 22 0.375 C 21.269531 0.601562 18.921875 0.867188 14.953125 1.171875 C 10.984375 1.484375 7.671875 1.640625 5.015625 1.640625 C 4.378906 -2.390625 3.800781 -7.085938 3.28125 -12.453125 C 2.769531 -17.828125 2.488281 -22.300781 2.4375 -25.875 C 6.332031 -26.613281 9.71875 -27.140625 12.59375 -27.453125 C 15.46875 -27.773438 18.285156 -27.9375 21.046875 -27.9375 C 21.046875 -27 20.988281 -26.003906 20.875 -24.953125 C 20.757812 -23.898438 20.578125 -22.800781 20.328125 -21.65625 C 18.910156 -21.65625 17.441406 -21.628906 15.921875 -21.578125 C 14.398438 -21.535156 12.816406 -21.460938 11.171875 -21.359375 C 11.117188 -20.796875 11.078125 -20.15625 11.046875 -19.4375 C 11.023438 -18.71875 11.003906 -17.632812 10.984375 -16.1875 C 12.273438 -16.570312 13.566406 -16.851562 14.859375 -17.03125 C 16.148438 -17.207031 17.46875 -17.296875 18.8125 -17.296875 C 19.007812 -16.398438 19.160156 -15.484375 19.265625 -14.546875 C 19.367188 -13.609375 19.421875 -12.507812 19.421875 -11.25 C 17.972656 -11.25 16.539062 -11.203125 15.125 -11.109375 C 13.707031 -11.023438 12.328125 -10.90625 10.984375 -10.75 C 11.003906 -9.613281 11.039062 -8.5 11.09375 -7.40625 C 11.144531 -6.320312 11.222656 -5.285156 11.328125 -4.296875 C 12.054688 -4.296875 13.597656 -4.441406 15.953125 -4.734375 C 18.316406 -5.023438 20.09375 -5.285156 21.28125 -5.515625 C 21.476562 -4.984375 21.644531 -4.113281 21.78125 -2.90625 C 21.925781 -1.707031 22 -0.613281 22 0.375 Z M 22 0.375 "/></g></g></g><g fill="#000000" fill-opacity="1"><g transform="translate(93.797902, 266.289899)"><g><path d="M 15.203125 -1.671875 C 14.085938 -1.390625 12.988281 -1.1875 11.90625 -1.0625 C 10.832031 -0.9375 9.625 -0.875 8.28125 -0.875 C 8.28125 -4.414062 8.175781 -8.242188 7.96875 -12.359375 C 7.769531 -16.484375 7.492188 -20.039062 7.140625 -23.03125 C 6.816406 -23 6.1875 -22.9375 5.25 -22.84375 C 4.3125 -22.757812 3.054688 -22.644531 1.484375 -22.5 C 1.148438 -23.382812 0.894531 -24.296875 0.71875 -25.234375 C 0.539062 -26.171875 0.453125 -27.082031 0.453125 -27.96875 C 3.921875 -28.75 7.234375 -29.3125 10.390625 -29.65625 C 13.546875 -30 17.113281 -30.171875 21.09375 -30.171875 C 21.21875 -29.742188 21.3125 -29.253906 21.375 -28.703125 C 21.4375 -28.160156 21.46875 -27.5625 21.46875 -26.90625 C 21.46875 -26.445312 21.4375 -25.953125 21.375 -25.421875 C 21.3125 -24.890625 21.203125 -24.304688 21.046875 -23.671875 C 20.085938 -23.671875 19.148438 -23.664062 18.234375 -23.65625 C 17.328125 -23.644531 16.429688 -23.613281 15.546875 -23.5625 C 15.640625 -21.988281 15.710938 -20.351562 15.765625 -18.65625 C 15.816406 -16.957031 15.84375 -15.207031 15.84375 -13.40625 C 15.84375 -11.738281 15.789062 -9.9375 15.6875 -8 C 15.59375 -6.0625 15.429688 -3.953125 15.203125 -1.671875 Z M 15.203125 -1.671875 "/></g></g></g><g fill="#000000" fill-opacity="1"><g transform="translate(115.87139, 266.289899)"><g><path d="M 4.328125 -28.53125 C 4.859375 -28.53125 5.429688 -28.484375 6.046875 -28.390625 C 6.671875 -28.304688 7.238281 -28.175781 7.75 -28 C 7.445312 -25.976562 7.160156 -24.265625 6.890625 -22.859375 C 6.628906 -21.453125 6.347656 -20.101562 6.046875 -18.8125 C 5.691406 -18.6875 5.140625 -18.597656 4.390625 -18.546875 C 3.640625 -18.492188 2.898438 -18.492188 2.171875 -18.546875 C 2.066406 -19.960938 1.984375 -21.375 1.921875 -22.78125 C 1.859375 -24.1875 1.785156 -25.925781 1.703125 -28 C 1.960938 -28.175781 2.328125 -28.304688 2.796875 -28.390625 C 3.265625 -28.484375 3.773438 -28.53125 4.328125 -28.53125 Z M 4.328125 -28.53125 "/></g></g></g><g fill="#000000" fill-opacity="1"><g transform="translate(125.331454, 266.289899)"><g><path d="M 18.390625 -13 C 18.972656 -12.1875 19.40625 -11.328125 19.6875 -10.421875 C 19.96875 -9.523438 20.109375 -8.5625 20.109375 -7.53125 C 20.109375 -4.914062 19.171875 -2.753906 17.296875 -1.046875 C 15.421875 0.660156 13.113281 1.515625 10.375 1.515625 C 7.363281 1.515625 4.847656 0.585938 2.828125 -1.265625 C 0.816406 -3.128906 -0.1875 -5.34375 -0.1875 -7.90625 C 0.625 -8.3125 1.601562 -8.660156 2.75 -8.953125 C 3.90625 -9.242188 4.863281 -9.390625 5.625 -9.390625 C 5.625 -7.460938 5.984375 -5.910156 6.703125 -4.734375 C 7.429688 -3.554688 8.414062 -2.96875 9.65625 -2.96875 C 10.539062 -2.96875 11.222656 -3.210938 11.703125 -3.703125 C 12.179688 -4.203125 12.421875 -4.878906 12.421875 -5.734375 C 12.421875 -6.472656 12.171875 -7.191406 11.671875 -7.890625 C 11.179688 -8.585938 10.085938 -9.582031 8.390625 -10.875 C 7.128906 -11.832031 6.191406 -12.601562 5.578125 -13.1875 C 4.972656 -13.769531 4.457031 -14.335938 4.03125 -14.890625 C 3.414062 -15.753906 2.957031 -16.648438 2.65625 -17.578125 C 2.351562 -18.503906 2.203125 -19.5 2.203125 -20.5625 C 2.203125 -23.09375 3.109375 -25.15625 4.921875 -26.75 C 6.734375 -28.34375 9.109375 -29.140625 12.046875 -29.140625 C 14.648438 -29.140625 16.742188 -28.515625 18.328125 -27.265625 C 19.910156 -26.015625 20.957031 -24.160156 21.46875 -21.703125 C 20.738281 -21.210938 19.90625 -20.832031 18.96875 -20.5625 C 18.03125 -20.300781 16.800781 -20.125 15.28125 -20.03125 C 15.050781 -21.59375 14.671875 -22.71875 14.140625 -23.40625 C 13.609375 -24.09375 12.875 -24.4375 11.9375 -24.4375 C 11.351562 -24.4375 10.890625 -24.25 10.546875 -23.875 C 10.203125 -23.507812 10.03125 -23.023438 10.03125 -22.421875 C 10.03125 -21.585938 10.28125 -20.789062 10.78125 -20.03125 C 11.289062 -19.269531 12.410156 -18.242188 14.140625 -16.953125 C 15.398438 -16.015625 16.320312 -15.265625 16.90625 -14.703125 C 17.488281 -14.148438 17.984375 -13.582031 18.390625 -13 Z M 18.390625 -13 "/></g></g></g><g fill="#000000" fill-opacity="1"><g transform="translate(146.607106, 266.289899)"><g/></g></g><g fill="#000000" fill-opacity="1"><g transform="translate(154.965401, 266.289899)"><g><path d="M 9.921875 -7.9375 C 9.921875 -7.03125 9.929688 -6.050781 9.953125 -5 C 9.984375 -3.945312 10.085938 -1.421875 10.265625 2.578125 C 9.117188 2.578125 7.960938 2.53125 6.796875 2.4375 C 5.628906 2.351562 4.601562 2.238281 3.71875 2.09375 C 3.238281 -1.9375 2.882812 -5.816406 2.65625 -9.546875 C 2.425781 -13.285156 2.3125 -16.914062 2.3125 -20.4375 C 2.3125 -21.226562 2.332031 -22.066406 2.375 -22.953125 C 2.414062 -23.835938 2.484375 -24.847656 2.578125 -25.984375 C 3.898438 -26.648438 5.503906 -27.1875 7.390625 -27.59375 C 9.273438 -28 11.128906 -28.203125 12.953125 -28.203125 C 16.046875 -28.203125 18.429688 -27.546875 20.109375 -26.234375 C 21.796875 -24.929688 22.640625 -23.113281 22.640625 -20.78125 C 22.640625 -17.945312 21.503906 -15.375 19.234375 -13.0625 C 16.972656 -10.757812 13.867188 -9.050781 9.921875 -7.9375 Z M 14.8125 -19.421875 C 14.8125 -20.890625 14.523438 -22.003906 13.953125 -22.765625 C 13.390625 -23.523438 12.539062 -23.90625 11.40625 -23.90625 C 11.175781 -23.90625 11.003906 -23.90625 10.890625 -23.90625 C 10.773438 -23.90625 10.664062 -23.890625 10.5625 -23.859375 C 10.414062 -22.160156 10.289062 -20.398438 10.1875 -18.578125 C 10.082031 -16.753906 10.003906 -14.84375 9.953125 -12.84375 C 11.578125 -13.269531 12.789062 -14.03125 13.59375 -15.125 C 14.40625 -16.21875 14.8125 -17.648438 14.8125 -19.421875 Z M 14.8125 -19.421875 "/></g></g></g><g fill="#000000" fill-opacity="1"><g transform="translate(179.052477, 266.289899)"><g><path d="M 19.5625 -3.078125 C 19.769531 -2.421875 19.96875 -1.488281 20.15625 -0.28125 C 20.34375 0.914062 20.4375 1.9375 20.4375 2.78125 C 17.9375 2.78125 15.535156 2.867188 13.234375 3.046875 C 10.941406 3.222656 8.085938 3.550781 4.671875 4.03125 C 4.066406 0.25 3.53125 -4.53125 3.0625 -10.3125 C 2.59375 -16.101562 2.359375 -20.925781 2.359375 -24.78125 C 3.523438 -25.082031 4.671875 -25.304688 5.796875 -25.453125 C 6.921875 -25.609375 8.039062 -25.6875 9.15625 -25.6875 C 9.488281 -25.6875 9.8125 -25.679688 10.125 -25.671875 C 10.445312 -25.660156 10.785156 -25.628906 11.140625 -25.578125 C 10.929688 -24.304688 10.765625 -22.613281 10.640625 -20.5 C 10.515625 -18.382812 10.453125 -16.132812 10.453125 -13.75 C 10.453125 -10.3125 10.492188 -7.753906 10.578125 -6.078125 C 10.671875 -4.410156 10.816406 -2.976562 11.015625 -1.78125 C 12.429688 -2.1875 13.894531 -2.503906 15.40625 -2.734375 C 16.914062 -2.960938 18.300781 -3.078125 19.5625 -3.078125 Z M 19.5625 -3.078125 "/></g></g></g><g fill="#000000" fill-opacity="1"><g transform="translate(199.302339, 266.289899)"><g><path d="M 25.53125 2.09375 C 24.644531 2.675781 23.585938 3.160156 22.359375 3.546875 C 21.128906 3.941406 19.664062 4.242188 17.96875 4.453125 C 17.820312 2.929688 17.613281 1.34375 17.34375 -0.3125 C 17.082031 -1.976562 16.75 -3.671875 16.34375 -5.390625 C 14.71875 -5.367188 13.257812 -5.316406 11.96875 -5.234375 C 10.675781 -5.160156 9.460938 -5.050781 8.328125 -4.90625 C 7.921875 -3.757812 7.5 -2.664062 7.0625 -1.625 C 6.632812 -0.59375 6.207031 0.351562 5.78125 1.21875 C 4.53125 1.007812 3.351562 0.609375 2.25 0.015625 C 1.15625 -0.578125 0.289062 -1.28125 -0.34375 -2.09375 C 1.601562 -5.71875 3.300781 -9.367188 4.75 -13.046875 C 6.195312 -16.734375 7.703125 -21.378906 9.265625 -26.984375 C 10.515625 -26.984375 11.640625 -26.925781 12.640625 -26.8125 C 13.640625 -26.695312 14.742188 -26.488281 15.953125 -26.1875 C 18.160156 -22.6875 20.070312 -18.53125 21.6875 -13.71875 C 23.3125 -8.90625 24.59375 -3.632812 25.53125 2.09375 Z M 12.421875 -18.28125 C 12.097656 -17.039062 11.734375 -15.722656 11.328125 -14.328125 C 10.921875 -12.929688 10.488281 -11.507812 10.03125 -10.0625 C 10.894531 -10.195312 11.738281 -10.300781 12.5625 -10.375 C 13.382812 -10.445312 14.210938 -10.5 15.046875 -10.53125 C 14.617188 -11.945312 14.1875 -13.300781 13.75 -14.59375 C 13.320312 -15.882812 12.878906 -17.113281 12.421875 -18.28125 Z M 12.421875 -18.28125 "/></g></g></g><g fill="#000000" fill-opacity="1"><g transform="translate(224.871116, 266.289899)"><g><path d="M 9.953125 -6.421875 L 9.953125 0.953125 C 9.296875 1.148438 8.347656 1.320312 7.109375 1.46875 C 5.867188 1.625 4.738281 1.703125 3.71875 1.703125 C 3.238281 -3.816406 2.878906 -8.835938 2.640625 -13.359375 C 2.398438 -17.878906 2.28125 -21.710938 2.28125 -24.859375 C 2.457031 -24.984375 2.59375 -25.066406 2.6875 -25.109375 C 2.789062 -25.160156 2.894531 -25.210938 3 -25.265625 C 3.988281 -25.773438 5.128906 -26.1875 6.421875 -26.5 C 7.710938 -26.820312 9.054688 -27.007812 10.453125 -27.0625 C 11.972656 -24.851562 13.304688 -22.691406 14.453125 -20.578125 C 15.609375 -18.460938 16.679688 -16.203125 17.671875 -13.796875 C 17.671875 -16.835938 17.609375 -19.539062 17.484375 -21.90625 C 17.359375 -24.269531 17.179688 -26.203125 16.953125 -27.703125 C 18.265625 -28.109375 19.566406 -28.414062 20.859375 -28.625 C 22.148438 -28.84375 23.429688 -28.953125 24.703125 -28.953125 C 24.773438 -27.515625 24.820312 -26.125 24.84375 -24.78125 C 24.875 -23.4375 24.890625 -22.128906 24.890625 -20.859375 C 24.890625 -17.742188 24.816406 -14.484375 24.671875 -11.078125 C 24.535156 -7.671875 24.351562 -4.394531 24.125 -1.25 C 22.5625 -1 21.265625 -0.816406 20.234375 -0.703125 C 19.210938 -0.585938 18.21875 -0.503906 17.25 -0.453125 C 15.625 -4.378906 14.285156 -7.410156 13.234375 -9.546875 C 12.191406 -11.691406 11.113281 -13.648438 10 -15.421875 C 9.96875 -14.390625 9.953125 -13.242188 9.953125 -11.984375 C 9.953125 -10.734375 9.953125 -8.878906 9.953125 -6.421875 Z M 9.953125 -6.421875 "/></g></g></g><g fill="#000000" fill-opacity="1"><g transform="translate(251.845616, 266.289899)"><g><path d="M 9.953125 -6.421875 L 9.953125 0.953125 C 9.296875 1.148438 8.347656 1.320312 7.109375 1.46875 C 5.867188 1.625 4.738281 1.703125 3.71875 1.703125 C 3.238281 -3.816406 2.878906 -8.835938 2.640625 -13.359375 C 2.398438 -17.878906 2.28125 -21.710938 2.28125 -24.859375 C 2.457031 -24.984375 2.59375 -25.066406 2.6875 -25.109375 C 2.789062 -25.160156 2.894531 -25.210938 3 -25.265625 C 3.988281 -25.773438 5.128906 -26.1875 6.421875 -26.5 C 7.710938 -26.820312 9.054688 -27.007812 10.453125 -27.0625 C 11.972656 -24.851562 13.304688 -22.691406 14.453125 -20.578125 C 15.609375 -18.460938 16.679688 -16.203125 17.671875 -13.796875 C 17.671875 -16.835938 17.609375 -19.539062 17.484375 -21.90625 C 17.359375 -24.269531 17.179688 -26.203125 16.953125 -27.703125 C 18.265625 -28.109375 19.566406 -28.414062 20.859375 -28.625 C 22.148438 -28.84375 23.429688 -28.953125 24.703125 -28.953125 C 24.773438 -27.515625 24.820312 -26.125 24.84375 -24.78125 C 24.875 -23.4375 24.890625 -22.128906 24.890625 -20.859375 C 24.890625 -17.742188 24.816406 -14.484375 24.671875 -11.078125 C 24.535156 -7.671875 24.351562 -4.394531 24.125 -1.25 C 22.5625 -1 21.265625 -0.816406 20.234375 -0.703125 C 19.210938 -0.585938 18.21875 -0.503906 17.25 -0.453125 C 15.625 -4.378906 14.285156 -7.410156 13.234375 -9.546875 C 12.191406 -11.691406 11.113281 -13.648438 10 -15.421875 C 9.96875 -14.390625 9.953125 -13.242188 9.953125 -11.984375 C 9.953125 -10.734375 9.953125 -8.878906 9.953125 -6.421875 Z M 9.953125 -6.421875 "/></g></g></g><g fill="#000000" fill-opacity="1"><g transform="translate(278.820117, 266.289899)"><g><path d="M 22 0.375 C 21.269531 0.601562 18.921875 0.867188 14.953125 1.171875 C 10.984375 1.484375 7.671875 1.640625 5.015625 1.640625 C 4.378906 -2.390625 3.800781 -7.085938 3.28125 -12.453125 C 2.769531 -17.828125 2.488281 -22.300781 2.4375 -25.875 C 6.332031 -26.613281 9.71875 -27.140625 12.59375 -27.453125 C 15.46875 -27.773438 18.285156 -27.9375 21.046875 -27.9375 C 21.046875 -27 20.988281 -26.003906 20.875 -24.953125 C 20.757812 -23.898438 20.578125 -22.800781 20.328125 -21.65625 C 18.910156 -21.65625 17.441406 -21.628906 15.921875 -21.578125 C 14.398438 -21.535156 12.816406 -21.460938 11.171875 -21.359375 C 11.117188 -20.796875 11.078125 -20.15625 11.046875 -19.4375 C 11.023438 -18.71875 11.003906 -17.632812 10.984375 -16.1875 C 12.273438 -16.570312 13.566406 -16.851562 14.859375 -17.03125 C 16.148438 -17.207031 17.46875 -17.296875 18.8125 -17.296875 C 19.007812 -16.398438 19.160156 -15.484375 19.265625 -14.546875 C 19.367188 -13.609375 19.421875 -12.507812 19.421875 -11.25 C 17.972656 -11.25 16.539062 -11.203125 15.125 -11.109375 C 13.707031 -11.023438 12.328125 -10.90625 10.984375 -10.75 C 11.003906 -9.613281 11.039062 -8.5 11.09375 -7.40625 C 11.144531 -6.320312 11.222656 -5.285156 11.328125 -4.296875 C 12.054688 -4.296875 13.597656 -4.441406 15.953125 -4.734375 C 18.316406 -5.023438 20.09375 -5.285156 21.28125 -5.515625 C 21.476562 -4.984375 21.644531 -4.113281 21.78125 -2.90625 C 21.925781 -1.707031 22 -0.613281 22 0.375 Z M 22 0.375 "/></g></g></g><g fill="#000000" fill-opacity="1"><g transform="translate(301.957391, 266.289899)"><g><path d="M 24.4375 -1.671875 C 23.644531 -0.859375 22.679688 -0.140625 21.546875 0.484375 C 20.410156 1.117188 19.09375 1.65625 17.59375 2.09375 C 15.96875 -1.726562 14.742188 -4.441406 13.921875 -6.046875 C 13.097656 -7.660156 12.234375 -9.140625 11.328125 -10.484375 C 11.097656 -10.429688 10.925781 -10.382812 10.8125 -10.34375 C 10.695312 -10.3125 10.585938 -10.269531 10.484375 -10.21875 C 10.429688 -8.394531 10.351562 -6.613281 10.25 -4.875 C 10.15625 -3.144531 10.03125 -1.429688 9.875 0.265625 C 8.738281 0.265625 7.585938 0.21875 6.421875 0.125 C 5.253906 0.0390625 4.226562 -0.078125 3.34375 -0.234375 C 3.363281 -1.421875 3.378906 -2.304688 3.390625 -2.890625 C 3.410156 -3.472656 3.421875 -4.015625 3.421875 -4.515625 C 3.421875 -7.734375 3.3125 -11.09375 3.09375 -14.59375 C 2.882812 -18.09375 2.550781 -21.890625 2.09375 -25.984375 C 3.28125 -27.003906 4.726562 -27.804688 6.4375 -28.390625 C 8.144531 -28.972656 9.835938 -29.265625 11.515625 -29.265625 C 14.828125 -29.265625 17.382812 -28.550781 19.1875 -27.125 C 20.988281 -25.707031 21.890625 -23.722656 21.890625 -21.171875 C 21.890625 -19.617188 21.484375 -18.171875 20.671875 -16.828125 C 19.859375 -15.484375 18.65625 -14.28125 17.0625 -13.21875 C 18.40625 -11.675781 19.675781 -9.96875 20.875 -8.09375 C 22.082031 -6.21875 23.269531 -4.078125 24.4375 -1.671875 Z M 10.5625 -14.96875 L 10.5625 -14.8125 C 11.75 -15.269531 12.632812 -15.96875 13.21875 -16.90625 C 13.800781 -17.84375 14.09375 -19.035156 14.09375 -20.484375 C 14.09375 -21.898438 13.78125 -23 13.15625 -23.78125 C 12.539062 -24.570312 11.648438 -24.96875 10.484375 -24.96875 L 10.34375 -24.96875 C 10.414062 -22.476562 10.46875 -20.503906 10.5 -19.046875 C 10.539062 -17.597656 10.5625 -16.238281 10.5625 -14.96875 Z M 10.5625 -14.96875 "/></g></g></g></svg>